<svg xmlns="http://www.w3.org/2000/svg" version="1.1" xmlns:xlink="http://www.w3.org/1999/xlink" xmlns:svgjs="http://svgjs.dev/svgjs" width="1440" height="560" preserveAspectRatio="none" viewBox="0 0 1440 560"><g mask="url(&quot;#SvgjsMask1426&quot;)" fill="none"><path d="M71.7 70.54L117.6 97.04L117.6 150.04L71.7 176.54L25.8 150.04L25.8 97.04zM71.7 388.54L117.6 415.04L117.6 468.04L71.7 494.54L25.8 468.04L25.8 415.04zM25.8 468.04L71.7 494.54L71.7 547.54L25.8 574.04L-20.1 547.54L-20.1 494.54zM71.7 547.54L117.6 574.04L117.6 627.04L71.7 653.54L25.8 627.04L25.8 574.04zM117.6 -8.96L163.5 17.54L163.5 70.54L117.6 97.04L71.7 70.54L71.7 17.54zM117.6 150.04L163.5 176.54L163.5 229.54L117.6 256.04L71.7 229.54L71.7 176.54zM163.5 229.54L209.4 256.04L209.4 309.04L163.5 335.54L117.6 309.04L117.6 256.04zM163.5 388.54L209.4 415.04L209.4 468.04L163.5 494.54L117.6 468.04L117.6 415.04zM117.6 468.04L163.5 494.54L163.5 547.54L117.6 574.04L71.7 547.54L71.7 494.54zM209.4 -8.96L255.3 17.54L255.3 70.54L209.4 97.04L163.5 70.54L163.5 17.54zM255.3 229.54L301.2 256.04L301.2 309.04L255.3 335.54L209.4 309.04L209.4 256.04zM255.3 388.54L301.2 415.04L301.2 468.04L255.3 494.54L209.4 468.04L209.4 415.04zM209.4 468.04L255.3 494.54L255.3 547.54L209.4 574.04L163.5 547.54L163.5 494.54zM347.1 229.54L393.01 256.04L393.01 309.04L347.1 335.54L301.2 309.04L301.2 256.04zM347.1 388.54L393.01 415.04L393.01 468.04L347.1 494.54L301.2 468.04L301.2 415.04zM484.81 -8.96L530.71 17.54L530.71 70.54L484.81 97.04L438.91 70.54L438.91 17.54zM530.71 70.54L576.61 97.04L576.61 150.04L530.71 176.54L484.81 150.04L484.81 97.04zM576.61 -8.96L622.51 17.54L622.51 70.54L576.61 97.04L530.71 70.54L530.71 17.54zM622.51 70.54L668.41 97.04L668.41 150.04L622.51 176.54L576.61 150.04L576.61 97.04zM576.61 150.04L622.51 176.54L622.51 229.54L576.61 256.04L530.71 229.54L530.71 176.54zM622.51 388.54L668.41 415.04L668.41 468.04L622.51 494.54L576.61 468.04L576.61 415.04zM668.41 -8.96L714.31 17.54L714.31 70.54L668.41 97.04L622.51 70.54L622.51 17.54zM714.31 229.54L760.21 256.04L760.21 309.04L714.31 335.54L668.41 309.04L668.41 256.04zM668.41 309.04L714.31 335.54L714.31 388.54L668.41 415.04L622.51 388.54L622.51 335.54zM714.31 388.54L760.21 415.04L760.21 468.04L714.31 494.54L668.41 468.04L668.41 415.04zM668.41 468.04L714.31 494.54L714.31 547.54L668.41 574.04L622.51 547.54L622.51 494.54zM806.11 229.54L852.01 256.04L852.01 309.04L806.11 335.54L760.21 309.04L760.21 256.04zM760.21 309.04L806.11 335.54L806.11 388.54L760.21 415.04L714.31 388.54L714.31 335.54zM806.11 388.54L852.01 415.04L852.01 468.04L806.11 494.54L760.21 468.04L760.21 415.04zM897.91 70.54L943.81 97.04L943.81 150.04L897.91 176.54L852.01 150.04L852.01 97.04zM852.01 150.04L897.91 176.54L897.91 229.54L852.01 256.04L806.11 229.54L806.11 176.54zM852.01 468.04L897.91 494.54L897.91 547.54L852.01 574.04L806.11 547.54L806.11 494.54zM943.81 -8.96L989.71 17.54L989.71 70.54L943.81 97.04L897.91 70.54L897.91 17.54zM943.81 468.04L989.71 494.54L989.71 547.54L943.81 574.04L897.91 547.54L897.91 494.54zM989.71 547.54L1035.61 574.04L1035.61 627.04L989.71 653.54L943.81 627.04L943.81 574.04zM1035.61 -8.96L1081.51 17.54L1081.51 70.54L1035.61 97.04L989.71 70.54L989.71 17.54zM1035.61 150.04L1081.51 176.54L1081.51 229.54L1035.61 256.04L989.71 229.54L989.71 176.54zM1219.22 -8.96L1265.12 17.54L1265.12 70.54L1219.22 97.04L1173.32 70.54L1173.32 17.54zM1219.22 468.04L1265.12 494.54L1265.12 547.54L1219.22 574.04L1173.32 547.54L1173.32 494.54zM1311.02 309.04L1356.92 335.54L1356.92 388.54L1311.02 415.04L1265.12 388.54L1265.12 335.54zM1356.92 547.54L1402.82 574.04L1402.82 627.04L1356.92 653.54L1311.02 627.04L1311.02 574.04zM1448.72 229.54L1494.62 256.04L1494.62 309.04L1448.72 335.54L1402.82 309.04L1402.82 256.04zM1402.82 309.04L1448.72 335.54L1448.72 388.54L1402.82 415.04L1356.92 388.54L1356.92 335.54zM1448.72 388.54L1494.62 415.04L1494.62 468.04L1448.72 494.54L1402.82 468.04L1402.82 415.04z" stroke="rgba(226, 227, 240, 1)" stroke-width="2"></path><path d="M66.4 70.54 a5.3 5.3 0 1 0 10.6 0 a5.3 5.3 0 1 0 -10.6 0zM112.3 97.04 a5.3 5.3 0 1 0 10.6 0 a5.3 5.3 0 1 0 -10.6 0zM112.3 150.04 a5.3 5.3 0 1 0 10.6 0 a5.3 5.3 0 1 0 -10.6 0zM66.4 176.54 a5.3 5.3 0 1 0 10.6 0 a5.3 5.3 0 1 0 -10.6 0zM20.5 150.04 a5.3 5.3 0 1 0 10.6 0 a5.3 5.3 0 1 0 -10.6 0zM20.5 97.04 a5.3 5.3 0 1 0 10.6 0 a5.3 5.3 0 1 0 -10.6 0zM66.4 388.54 a5.3 5.3 0 1 0 10.6 0 a5.3 5.3 0 1 0 -10.6 0zM112.3 415.04 a5.3 5.3 0 1 0 10.6 0 a5.3 5.3 0 1 0 -10.6 0zM112.3 468.04 a5.3 5.3 0 1 0 10.6 0 a5.3 5.3 0 1 0 -10.6 0zM66.4 494.54 a5.3 5.3 0 1 0 10.6 0 a5.3 5.3 0 1 0 -10.6 0zM20.5 468.04 a5.3 5.3 0 1 0 10.6 0 a5.3 5.3 0 1 0 -10.6 0zM20.5 415.04 a5.3 5.3 0 1 0 10.6 0 a5.3 5.3 0 1 0 -10.6 0zM66.4 547.54 a5.3 5.3 0 1 0 10.6 0 a5.3 5.3 0 1 0 -10.6 0zM20.5 574.04 a5.3 5.3 0 1 0 10.6 0 a5.3 5.3 0 1 0 -10.6 0zM-25.4 547.54 a5.3 5.3 0 1 0 10.6 0 a5.3 5.3 0 1 0 -10.6 0zM-25.4 494.54 a5.3 5.3 0 1 0 10.6 0 a5.3 5.3 0 1 0 -10.6 0zM112.3 574.04 a5.3 5.3 0 1 0 10.6 0 a5.3 5.3 0 1 0 -10.6 0zM112.3 627.04 a5.3 5.3 0 1 0 10.6 0 a5.3 5.3 0 1 0 -10.6 0zM66.4 653.54 a5.3 5.3 0 1 0 10.6 0 a5.3 5.3 0 1 0 -10.6 0zM20.5 627.04 a5.3 5.3 0 1 0 10.6 0 a5.3 5.3 0 1 0 -10.6 0zM112.3 -8.96 a5.3 5.3 0 1 0 10.6 0 a5.3 5.3 0 1 0 -10.6 0zM158.2 17.54 a5.3 5.3 0 1 0 10.6 0 a5.3 5.3 0 1 0 -10.6 0zM158.2 70.54 a5.3 5.3 0 1 0 10.6 0 a5.3 5.3 0 1 0 -10.6 0zM66.4 17.54 a5.3 5.3 0 1 0 10.6 0 a5.3 5.3 0 1 0 -10.6 0zM158.2 176.54 a5.3 5.3 0 1 0 10.6 0 a5.3 5.3 0 1 0 -10.6 0zM158.2 229.54 a5.3 5.3 0 1 0 10.6 0 a5.3 5.3 0 1 0 -10.6 0zM112.3 256.04 a5.3 5.3 0 1 0 10.6 0 a5.3 5.3 0 1 0 -10.6 0zM66.4 229.54 a5.3 5.3 0 1 0 10.6 0 a5.3 5.3 0 1 0 -10.6 0zM204.1 256.04 a5.3 5.3 0 1 0 10.6 0 a5.3 5.3 0 1 0 -10.6 0zM204.1 309.04 a5.3 5.3 0 1 0 10.6 0 a5.3 5.3 0 1 0 -10.6 0zM158.2 335.54 a5.3 5.3 0 1 0 10.6 0 a5.3 5.3 0 1 0 -10.6 0zM112.3 309.04 a5.3 5.3 0 1 0 10.6 0 a5.3 5.3 0 1 0 -10.6 0zM158.2 388.54 a5.3 5.3 0 1 0 10.6 0 a5.3 5.3 0 1 0 -10.6 0zM204.1 415.04 a5.3 5.3 0 1 0 10.6 0 a5.3 5.3 0 1 0 -10.6 0zM204.1 468.04 a5.3 5.3 0 1 0 10.6 0 a5.3 5.3 0 1 0 -10.6 0zM158.2 494.54 a5.3 5.3 0 1 0 10.6 0 a5.3 5.3 0 1 0 -10.6 0zM158.2 547.54 a5.3 5.3 0 1 0 10.6 0 a5.3 5.3 0 1 0 -10.6 0zM204.1 -8.96 a5.3 5.3 0 1 0 10.6 0 a5.3 5.3 0 1 0 -10.6 0zM250 17.54 a5.3 5.3 0 1 0 10.6 0 a5.3 5.3 0 1 0 -10.6 0zM250 70.54 a5.3 5.3 0 1 0 10.6 0 a5.3 5.3 0 1 0 -10.6 0zM204.1 97.04 a5.3 5.3 0 1 0 10.6 0 a5.3 5.3 0 1 0 -10.6 0zM250 229.54 a5.3 5.3 0 1 0 10.6 0 a5.3 5.3 0 1 0 -10.6 0zM295.9 256.04 a5.3 5.3 0 1 0 10.6 0 a5.3 5.3 0 1 0 -10.6 0zM295.9 309.04 a5.3 5.3 0 1 0 10.6 0 a5.3 5.3 0 1 0 -10.6 0zM250 335.54 a5.3 5.3 0 1 0 10.6 0 a5.3 5.3 0 1 0 -10.6 0zM250 388.54 a5.3 5.3 0 1 0 10.6 0 a5.3 5.3 0 1 0 -10.6 0zM295.9 415.04 a5.3 5.3 0 1 0 10.6 0 a5.3 5.3 0 1 0 -10.6 0zM295.9 468.04 a5.3 5.3 0 1 0 10.6 0 a5.3 5.3 0 1 0 -10.6 0zM250 494.54 a5.3 5.3 0 1 0 10.6 0 a5.3 5.3 0 1 0 -10.6 0zM250 547.54 a5.3 5.3 0 1 0 10.6 0 a5.3 5.3 0 1 0 -10.6 0zM204.1 574.04 a5.3 5.3 0 1 0 10.6 0 a5.3 5.3 0 1 0 -10.6 0zM341.8 229.54 a5.3 5.3 0 1 0 10.6 0 a5.3 5.3 0 1 0 -10.6 0zM387.71 256.04 a5.3 5.3 0 1 0 10.6 0 a5.3 5.3 0 1 0 -10.6 0zM387.71 309.04 a5.3 5.3 0 1 0 10.6 0 a5.3 5.3 0 1 0 -10.6 0zM341.8 335.54 a5.3 5.3 0 1 0 10.6 0 a5.3 5.3 0 1 0 -10.6 0zM341.8 388.54 a5.3 5.3 0 1 0 10.6 0 a5.3 5.3 0 1 0 -10.6 0zM387.71 415.04 a5.3 5.3 0 1 0 10.6 0 a5.3 5.3 0 1 0 -10.6 0zM387.71 468.04 a5.3 5.3 0 1 0 10.6 0 a5.3 5.3 0 1 0 -10.6 0zM341.8 494.54 a5.3 5.3 0 1 0 10.6 0 a5.3 5.3 0 1 0 -10.6 0zM479.51 -8.96 a5.3 5.3 0 1 0 10.6 0 a5.3 5.3 0 1 0 -10.6 0zM525.41 17.54 a5.3 5.3 0 1 0 10.6 0 a5.3 5.3 0 1 0 -10.6 0zM525.41 70.54 a5.3 5.3 0 1 0 10.6 0 a5.3 5.3 0 1 0 -10.6 0zM479.51 97.04 a5.3 5.3 0 1 0 10.6 0 a5.3 5.3 0 1 0 -10.6 0zM433.61 70.54 a5.3 5.3 0 1 0 10.6 0 a5.3 5.3 0 1 0 -10.6 0zM433.61 17.54 a5.3 5.3 0 1 0 10.6 0 a5.3 5.3 0 1 0 -10.6 0zM571.31 97.04 a5.3 5.3 0 1 0 10.6 0 a5.3 5.3 0 1 0 -10.6 0zM571.31 150.04 a5.3 5.3 0 1 0 10.6 0 a5.3 5.3 0 1 0 -10.6 0zM525.41 176.54 a5.3 5.3 0 1 0 10.6 0 a5.3 5.3 0 1 0 -10.6 0zM479.51 150.04 a5.3 5.3 0 1 0 10.6 0 a5.3 5.3 0 1 0 -10.6 0zM571.31 -8.96 a5.3 5.3 0 1 0 10.6 0 a5.3 5.3 0 1 0 -10.6 0zM617.21 17.54 a5.3 5.3 0 1 0 10.6 0 a5.3 5.3 0 1 0 -10.6 0zM617.21 70.54 a5.3 5.3 0 1 0 10.6 0 a5.3 5.3 0 1 0 -10.6 0zM663.11 97.04 a5.3 5.3 0 1 0 10.6 0 a5.3 5.3 0 1 0 -10.6 0zM663.11 150.04 a5.3 5.3 0 1 0 10.6 0 a5.3 5.3 0 1 0 -10.6 0zM617.21 176.54 a5.3 5.3 0 1 0 10.6 0 a5.3 5.3 0 1 0 -10.6 0zM617.21 229.54 a5.3 5.3 0 1 0 10.6 0 a5.3 5.3 0 1 0 -10.6 0zM571.31 256.04 a5.3 5.3 0 1 0 10.6 0 a5.3 5.3 0 1 0 -10.6 0zM525.41 229.54 a5.3 5.3 0 1 0 10.6 0 a5.3 5.3 0 1 0 -10.6 0zM617.21 388.54 a5.3 5.3 0 1 0 10.6 0 a5.3 5.3 0 1 0 -10.6 0zM663.11 415.04 a5.3 5.3 0 1 0 10.6 0 a5.3 5.3 0 1 0 -10.6 0zM663.11 468.04 a5.3 5.3 0 1 0 10.6 0 a5.3 5.3 0 1 0 -10.6 0zM617.21 494.54 a5.3 5.3 0 1 0 10.6 0 a5.3 5.3 0 1 0 -10.6 0zM571.31 468.04 a5.3 5.3 0 1 0 10.6 0 a5.3 5.3 0 1 0 -10.6 0zM571.31 415.04 a5.3 5.3 0 1 0 10.6 0 a5.3 5.3 0 1 0 -10.6 0zM663.11 -8.96 a5.3 5.3 0 1 0 10.6 0 a5.3 5.3 0 1 0 -10.6 0zM709.01 17.54 a5.3 5.3 0 1 0 10.6 0 a5.3 5.3 0 1 0 -10.6 0zM709.01 70.54 a5.3 5.3 0 1 0 10.6 0 a5.3 5.3 0 1 0 -10.6 0zM709.01 229.54 a5.3 5.3 0 1 0 10.6 0 a5.3 5.3 0 1 0 -10.6 0zM754.91 256.04 a5.3 5.3 0 1 0 10.6 0 a5.3 5.3 0 1 0 -10.6 0zM754.91 309.04 a5.3 5.3 0 1 0 10.6 0 a5.3 5.3 0 1 0 -10.6 0zM709.01 335.54 a5.3 5.3 0 1 0 10.6 0 a5.3 5.3 0 1 0 -10.6 0zM663.11 309.04 a5.3 5.3 0 1 0 10.6 0 a5.3 5.3 0 1 0 -10.6 0zM663.11 256.04 a5.3 5.3 0 1 0 10.6 0 a5.3 5.3 0 1 0 -10.6 0zM709.01 388.54 a5.3 5.3 0 1 0 10.6 0 a5.3 5.3 0 1 0 -10.6 0zM617.21 335.54 a5.3 5.3 0 1 0 10.6 0 a5.3 5.3 0 1 0 -10.6 0zM754.91 415.04 a5.3 5.3 0 1 0 10.6 0 a5.3 5.3 0 1 0 -10.6 0zM754.91 468.04 a5.3 5.3 0 1 0 10.6 0 a5.3 5.3 0 1 0 -10.6 0zM709.01 494.54 a5.3 5.3 0 1 0 10.6 0 a5.3 5.3 0 1 0 -10.6 0zM709.01 547.54 a5.3 5.3 0 1 0 10.6 0 a5.3 5.3 0 1 0 -10.6 0zM663.11 574.04 a5.3 5.3 0 1 0 10.6 0 a5.3 5.3 0 1 0 -10.6 0zM617.21 547.54 a5.3 5.3 0 1 0 10.6 0 a5.3 5.3 0 1 0 -10.6 0zM800.81 229.54 a5.3 5.3 0 1 0 10.6 0 a5.3 5.3 0 1 0 -10.6 0zM846.71 256.04 a5.3 5.3 0 1 0 10.6 0 a5.3 5.3 0 1 0 -10.6 0zM846.71 309.04 a5.3 5.3 0 1 0 10.6 0 a5.3 5.3 0 1 0 -10.6 0zM800.81 335.54 a5.3 5.3 0 1 0 10.6 0 a5.3 5.3 0 1 0 -10.6 0zM800.81 388.54 a5.3 5.3 0 1 0 10.6 0 a5.3 5.3 0 1 0 -10.6 0zM846.71 415.04 a5.3 5.3 0 1 0 10.6 0 a5.3 5.3 0 1 0 -10.6 0zM846.71 468.04 a5.3 5.3 0 1 0 10.6 0 a5.3 5.3 0 1 0 -10.6 0zM800.81 494.54 a5.3 5.3 0 1 0 10.6 0 a5.3 5.3 0 1 0 -10.6 0zM892.61 70.54 a5.3 5.3 0 1 0 10.6 0 a5.3 5.3 0 1 0 -10.6 0zM938.51 97.04 a5.3 5.3 0 1 0 10.6 0 a5.3 5.3 0 1 0 -10.6 0zM938.51 150.04 a5.3 5.3 0 1 0 10.6 0 a5.3 5.3 0 1 0 -10.6 0zM892.61 176.54 a5.3 5.3 0 1 0 10.6 0 a5.3 5.3 0 1 0 -10.6 0zM846.71 150.04 a5.3 5.3 0 1 0 10.6 0 a5.3 5.3 0 1 0 -10.6 0zM846.71 97.04 a5.3 5.3 0 1 0 10.6 0 a5.3 5.3 0 1 0 -10.6 0zM892.61 229.54 a5.3 5.3 0 1 0 10.6 0 a5.3 5.3 0 1 0 -10.6 0zM800.81 176.54 a5.3 5.3 0 1 0 10.6 0 a5.3 5.3 0 1 0 -10.6 0zM892.61 494.54 a5.3 5.3 0 1 0 10.6 0 a5.3 5.3 0 1 0 -10.6 0zM892.61 547.54 a5.3 5.3 0 1 0 10.6 0 a5.3 5.3 0 1 0 -10.6 0zM846.71 574.04 a5.3 5.3 0 1 0 10.6 0 a5.3 5.3 0 1 0 -10.6 0zM800.81 547.54 a5.3 5.3 0 1 0 10.6 0 a5.3 5.3 0 1 0 -10.6 0zM938.51 -8.96 a5.3 5.3 0 1 0 10.6 0 a5.3 5.3 0 1 0 -10.6 0zM984.41 17.54 a5.3 5.3 0 1 0 10.6 0 a5.3 5.3 0 1 0 -10.6 0zM984.41 70.54 a5.3 5.3 0 1 0 10.6 0 a5.3 5.3 0 1 0 -10.6 0zM892.61 17.54 a5.3 5.3 0 1 0 10.6 0 a5.3 5.3 0 1 0 -10.6 0zM938.51 468.04 a5.3 5.3 0 1 0 10.6 0 a5.3 5.3 0 1 0 -10.6 0zM984.41 494.54 a5.3 5.3 0 1 0 10.6 0 a5.3 5.3 0 1 0 -10.6 0zM984.41 547.54 a5.3 5.3 0 1 0 10.6 0 a5.3 5.3 0 1 0 -10.6 0zM938.51 574.04 a5.3 5.3 0 1 0 10.6 0 a5.3 5.3 0 1 0 -10.6 0zM1030.31 574.04 a5.3 5.3 0 1 0 10.6 0 a5.3 5.3 0 1 0 -10.6 0zM1030.31 627.04 a5.3 5.3 0 1 0 10.6 0 a5.3 5.3 0 1 0 -10.6 0zM984.41 653.54 a5.3 5.3 0 1 0 10.6 0 a5.3 5.3 0 1 0 -10.6 0zM938.51 627.04 a5.3 5.3 0 1 0 10.6 0 a5.3 5.3 0 1 0 -10.6 0zM1030.31 -8.96 a5.3 5.3 0 1 0 10.6 0 a5.3 5.3 0 1 0 -10.6 0zM1076.21 17.54 a5.3 5.3 0 1 0 10.6 0 a5.3 5.3 0 1 0 -10.6 0zM1076.21 70.54 a5.3 5.3 0 1 0 10.6 0 a5.3 5.3 0 1 0 -10.6 0zM1030.31 97.04 a5.3 5.3 0 1 0 10.6 0 a5.3 5.3 0 1 0 -10.6 0zM1030.31 150.04 a5.3 5.3 0 1 0 10.6 0 a5.3 5.3 0 1 0 -10.6 0zM1076.21 176.54 a5.3 5.3 0 1 0 10.6 0 a5.3 5.3 0 1 0 -10.6 0zM1076.21 229.54 a5.3 5.3 0 1 0 10.6 0 a5.3 5.3 0 1 0 -10.6 0zM1030.31 256.04 a5.3 5.3 0 1 0 10.6 0 a5.3 5.3 0 1 0 -10.6 0zM984.41 229.54 a5.3 5.3 0 1 0 10.6 0 a5.3 5.3 0 1 0 -10.6 0zM984.41 176.54 a5.3 5.3 0 1 0 10.6 0 a5.3 5.3 0 1 0 -10.6 0zM1213.92 -8.96 a5.3 5.3 0 1 0 10.6 0 a5.3 5.3 0 1 0 -10.6 0zM1259.82 17.54 a5.3 5.3 0 1 0 10.6 0 a5.3 5.3 0 1 0 -10.6 0zM1259.82 70.54 a5.3 5.3 0 1 0 10.6 0 a5.3 5.3 0 1 0 -10.6 0zM1213.92 97.04 a5.3 5.3 0 1 0 10.6 0 a5.3 5.3 0 1 0 -10.6 0zM1168.02 70.54 a5.3 5.3 0 1 0 10.6 0 a5.3 5.3 0 1 0 -10.6 0zM1168.02 17.54 a5.3 5.3 0 1 0 10.6 0 a5.3 5.3 0 1 0 -10.6 0zM1213.92 468.04 a5.3 5.3 0 1 0 10.6 0 a5.3 5.3 0 1 0 -10.6 0zM1259.82 494.54 a5.3 5.3 0 1 0 10.6 0 a5.3 5.3 0 1 0 -10.6 0zM1259.82 547.54 a5.3 5.3 0 1 0 10.6 0 a5.3 5.3 0 1 0 -10.6 0zM1213.92 574.04 a5.3 5.3 0 1 0 10.6 0 a5.3 5.3 0 1 0 -10.6 0zM1168.02 547.54 a5.3 5.3 0 1 0 10.6 0 a5.3 5.3 0 1 0 -10.6 0zM1168.02 494.54 a5.3 5.3 0 1 0 10.6 0 a5.3 5.3 0 1 0 -10.6 0zM1305.72 309.04 a5.3 5.3 0 1 0 10.6 0 a5.3 5.3 0 1 0 -10.6 0zM1351.62 335.54 a5.3 5.3 0 1 0 10.6 0 a5.3 5.3 0 1 0 -10.6 0zM1351.62 388.54 a5.3 5.3 0 1 0 10.6 0 a5.3 5.3 0 1 0 -10.6 0zM1305.72 415.04 a5.3 5.3 0 1 0 10.6 0 a5.3 5.3 0 1 0 -10.6 0zM1259.82 388.54 a5.3 5.3 0 1 0 10.6 0 a5.3 5.3 0 1 0 -10.6 0zM1259.82 335.54 a5.3 5.3 0 1 0 10.6 0 a5.3 5.3 0 1 0 -10.6 0zM1351.62 547.54 a5.3 5.3 0 1 0 10.6 0 a5.3 5.3 0 1 0 -10.6 0zM1397.52 574.04 a5.3 5.3 0 1 0 10.6 0 a5.3 5.3 0 1 0 -10.6 0zM1397.52 627.04 a5.3 5.3 0 1 0 10.6 0 a5.3 5.3 0 1 0 -10.6 0zM1351.62 653.54 a5.3 5.3 0 1 0 10.6 0 a5.3 5.3 0 1 0 -10.6 0zM1305.72 627.04 a5.3 5.3 0 1 0 10.6 0 a5.3 5.3 0 1 0 -10.6 0zM1305.72 574.04 a5.3 5.3 0 1 0 10.6 0 a5.3 5.3 0 1 0 -10.6 0zM1443.42 229.54 a5.3 5.3 0 1 0 10.6 0 a5.3 5.3 0 1 0 -10.6 0zM1489.32 256.04 a5.3 5.3 0 1 0 10.6 0 a5.3 5.3 0 1 0 -10.6 0zM1489.32 309.04 a5.3 5.3 0 1 0 10.6 0 a5.3 5.3 0 1 0 -10.6 0zM1443.42 335.54 a5.3 5.3 0 1 0 10.6 0 a5.3 5.3 0 1 0 -10.6 0zM1397.52 309.04 a5.3 5.3 0 1 0 10.6 0 a5.3 5.3 0 1 0 -10.6 0zM1397.52 256.04 a5.3 5.3 0 1 0 10.6 0 a5.3 5.3 0 1 0 -10.6 0zM1443.42 388.54 a5.3 5.3 0 1 0 10.6 0 a5.3 5.3 0 1 0 -10.6 0zM1397.52 415.04 a5.3 5.3 0 1 0 10.6 0 a5.3 5.3 0 1 0 -10.6 0zM1489.32 415.04 a5.3 5.3 0 1 0 10.6 0 a5.3 5.3 0 1 0 -10.6 0zM1489.32 468.04 a5.3 5.3 0 1 0 10.6 0 a5.3 5.3 0 1 0 -10.6 0zM1443.42 494.54 a5.3 5.3 0 1 0 10.6 0 a5.3 5.3 0 1 0 -10.6 0zM1397.52 468.04 a5.3 5.3 0 1 0 10.6 0 a5.3 5.3 0 1 0 -10.6 0z" fill="rgba(226, 227, 240, 1)"></path><path d="M129 48.26L193.96 85.76L193.96 160.76L129 198.26L64.05 160.76L64.05 85.76zM64.05 160.76L129 198.26L129 273.26L64.05 310.76L-0.9 273.26L-0.9 198.26zM193.96 -64.24L258.91 -26.74L258.91 48.26L193.96 85.76L129 48.26L129 -26.74zM258.91 273.26L323.87 310.76L323.87 385.76L258.91 423.26L193.96 385.76L193.96 310.76zM323.87 -64.24L388.82 -26.74L388.82 48.26L323.87 85.76L258.91 48.26L258.91 -26.74zM388.82 48.26L453.77 85.76L453.77 160.76L388.82 198.26L323.87 160.76L323.87 85.76zM323.87 160.76L388.82 198.26L388.82 273.26L323.87 310.76L258.91 273.26L258.91 198.26zM388.82 273.26L453.77 310.76L453.77 385.76L388.82 423.26L323.87 385.76L323.87 310.76zM388.82 498.26L453.77 535.76L453.77 610.76L388.82 648.26L323.87 610.76L323.87 535.76zM518.73 48.26L583.68 85.76L583.68 160.76L518.73 198.26L453.77 160.76L453.77 85.76zM453.77 385.76L518.73 423.26L518.73 498.26L453.77 535.76L388.82 498.26L388.82 423.26zM648.63 48.26L713.59 85.76L713.59 160.76L648.63 198.26L583.68 160.76L583.68 85.76zM648.63 498.26L713.59 535.76L713.59 610.76L648.63 648.26L583.68 610.76L583.68 535.76zM713.59 -64.24L778.54 -26.74L778.54 48.26L713.59 85.76L648.63 48.26L648.63 -26.74zM713.59 385.76L778.54 423.26L778.54 498.26L713.59 535.76L648.63 498.26L648.63 423.26zM778.54 498.26L843.5 535.76L843.5 610.76L778.54 648.26L713.59 610.76L713.59 535.76zM908.45 273.26L973.4 310.76L973.4 385.76L908.45 423.26L843.49 385.76L843.49 310.76zM843.49 385.76L908.45 423.26L908.45 498.26L843.49 535.76L778.54 498.26L778.54 423.26zM973.4 160.76L1038.36 198.26L1038.36 273.26L973.4 310.76L908.45 273.26L908.45 198.26zM973.4 385.76L1038.36 423.26L1038.36 498.26L973.4 535.76L908.45 498.26L908.45 423.26zM1038.36 498.26L1103.31 535.76L1103.31 610.76L1038.36 648.26L973.4 610.76L973.4 535.76zM1103.31 -64.24L1168.26 -26.74L1168.26 48.26L1103.31 85.76L1038.36 48.26L1038.36 -26.74zM1103.31 160.76L1168.26 198.26L1168.26 273.26L1103.31 310.76L1038.36 273.26L1038.36 198.26zM1233.22 -64.24L1298.17 -26.74L1298.17 48.26L1233.22 85.76L1168.26 48.26L1168.26 -26.74zM1233.22 385.76L1298.17 423.26L1298.17 498.26L1233.22 535.76L1168.26 498.26L1168.26 423.26zM1298.17 498.26L1363.12 535.76L1363.12 610.76L1298.17 648.26L1233.22 610.76L1233.22 535.76zM1363.13 160.76L1428.08 198.26L1428.08 273.26L1363.13 310.76L1298.17 273.26L1298.17 198.26zM1428.08 273.26L1493.03 310.76L1493.03 385.76L1428.08 423.26L1363.13 385.76L1363.13 310.76zM1363.13 385.76L1428.08 423.26L1428.08 498.26L1363.13 535.76L1298.17 498.26L1298.17 423.26zM1557.99 48.26L1622.94 85.76L1622.94 160.76L1557.99 198.26L1493.03 160.76L1493.03 85.76zM1493.03 160.76L1557.99 198.26L1557.99 273.26L1493.03 310.76L1428.08 273.26L1428.08 198.26z" stroke="#03305d" stroke-width="2"></path><path d="M121.5 48.26 a7.5 7.5 0 1 0 15 0 a7.5 7.5 0 1 0 -15 0zM186.46 85.76 a7.5 7.5 0 1 0 15 0 a7.5 7.5 0 1 0 -15 0zM186.46 160.76 a7.5 7.5 0 1 0 15 0 a7.5 7.5 0 1 0 -15 0zM121.5 198.26 a7.5 7.5 0 1 0 15 0 a7.5 7.5 0 1 0 -15 0zM56.55 160.76 a7.5 7.5 0 1 0 15 0 a7.5 7.5 0 1 0 -15 0zM56.55 85.76 a7.5 7.5 0 1 0 15 0 a7.5 7.5 0 1 0 -15 0zM121.5 273.26 a7.5 7.5 0 1 0 15 0 a7.5 7.5 0 1 0 -15 0zM56.55 310.76 a7.5 7.5 0 1 0 15 0 a7.5 7.5 0 1 0 -15 0zM-8.4 273.26 a7.5 7.5 0 1 0 15 0 a7.5 7.5 0 1 0 -15 0zM-8.4 198.26 a7.5 7.5 0 1 0 15 0 a7.5 7.5 0 1 0 -15 0zM186.46 -64.24 a7.5 7.5 0 1 0 15 0 a7.5 7.5 0 1 0 -15 0zM251.41 -26.74 a7.5 7.5 0 1 0 15 0 a7.5 7.5 0 1 0 -15 0zM251.41 48.26 a7.5 7.5 0 1 0 15 0 a7.5 7.5 0 1 0 -15 0zM121.5 -26.74 a7.5 7.5 0 1 0 15 0 a7.5 7.5 0 1 0 -15 0zM251.41 273.26 a7.5 7.5 0 1 0 15 0 a7.5 7.5 0 1 0 -15 0zM316.37 310.76 a7.5 7.5 0 1 0 15 0 a7.5 7.5 0 1 0 -15 0zM316.37 385.76 a7.5 7.5 0 1 0 15 0 a7.5 7.5 0 1 0 -15 0zM251.41 423.26 a7.5 7.5 0 1 0 15 0 a7.5 7.5 0 1 0 -15 0zM186.46 385.76 a7.5 7.5 0 1 0 15 0 a7.5 7.5 0 1 0 -15 0zM186.46 310.76 a7.5 7.5 0 1 0 15 0 a7.5 7.5 0 1 0 -15 0zM316.37 -64.24 a7.5 7.5 0 1 0 15 0 a7.5 7.5 0 1 0 -15 0zM381.32 -26.74 a7.5 7.5 0 1 0 15 0 a7.5 7.5 0 1 0 -15 0zM381.32 48.26 a7.5 7.5 0 1 0 15 0 a7.5 7.5 0 1 0 -15 0zM316.37 85.76 a7.5 7.5 0 1 0 15 0 a7.5 7.5 0 1 0 -15 0zM446.27 85.76 a7.5 7.5 0 1 0 15 0 a7.5 7.5 0 1 0 -15 0zM446.27 160.76 a7.5 7.5 0 1 0 15 0 a7.5 7.5 0 1 0 -15 0zM381.32 198.26 a7.5 7.5 0 1 0 15 0 a7.5 7.5 0 1 0 -15 0zM316.37 160.76 a7.5 7.5 0 1 0 15 0 a7.5 7.5 0 1 0 -15 0zM381.32 273.26 a7.5 7.5 0 1 0 15 0 a7.5 7.5 0 1 0 -15 0zM251.41 198.26 a7.5 7.5 0 1 0 15 0 a7.5 7.5 0 1 0 -15 0zM446.27 310.76 a7.5 7.5 0 1 0 15 0 a7.5 7.5 0 1 0 -15 0zM446.27 385.76 a7.5 7.5 0 1 0 15 0 a7.5 7.5 0 1 0 -15 0zM381.32 423.26 a7.5 7.5 0 1 0 15 0 a7.5 7.5 0 1 0 -15 0zM381.32 498.26 a7.5 7.5 0 1 0 15 0 a7.5 7.5 0 1 0 -15 0zM446.27 535.76 a7.5 7.5 0 1 0 15 0 a7.5 7.5 0 1 0 -15 0zM446.27 610.76 a7.5 7.5 0 1 0 15 0 a7.5 7.5 0 1 0 -15 0zM381.32 648.26 a7.5 7.5 0 1 0 15 0 a7.5 7.5 0 1 0 -15 0zM316.37 610.76 a7.5 7.5 0 1 0 15 0 a7.5 7.5 0 1 0 -15 0zM316.37 535.76 a7.5 7.5 0 1 0 15 0 a7.5 7.5 0 1 0 -15 0zM511.23 48.26 a7.5 7.5 0 1 0 15 0 a7.5 7.5 0 1 0 -15 0zM576.18 85.76 a7.5 7.5 0 1 0 15 0 a7.5 7.5 0 1 0 -15 0zM576.18 160.76 a7.5 7.5 0 1 0 15 0 a7.5 7.5 0 1 0 -15 0zM511.23 198.26 a7.5 7.5 0 1 0 15 0 a7.5 7.5 0 1 0 -15 0zM511.23 423.26 a7.5 7.5 0 1 0 15 0 a7.5 7.5 0 1 0 -15 0zM511.23 498.26 a7.5 7.5 0 1 0 15 0 a7.5 7.5 0 1 0 -15 0zM641.13 48.26 a7.5 7.5 0 1 0 15 0 a7.5 7.5 0 1 0 -15 0zM706.09 85.76 a7.5 7.5 0 1 0 15 0 a7.5 7.5 0 1 0 -15 0zM706.09 160.76 a7.5 7.5 0 1 0 15 0 a7.5 7.5 0 1 0 -15 0zM641.13 198.26 a7.5 7.5 0 1 0 15 0 a7.5 7.5 0 1 0 -15 0zM641.13 498.26 a7.5 7.5 0 1 0 15 0 a7.5 7.5 0 1 0 -15 0zM706.09 535.76 a7.5 7.5 0 1 0 15 0 a7.5 7.5 0 1 0 -15 0zM706.09 610.76 a7.5 7.5 0 1 0 15 0 a7.5 7.5 0 1 0 -15 0zM641.13 648.26 a7.5 7.5 0 1 0 15 0 a7.5 7.5 0 1 0 -15 0zM576.18 610.76 a7.5 7.5 0 1 0 15 0 a7.5 7.5 0 1 0 -15 0zM576.18 535.76 a7.5 7.5 0 1 0 15 0 a7.5 7.5 0 1 0 -15 0zM706.09 -64.24 a7.5 7.5 0 1 0 15 0 a7.5 7.5 0 1 0 -15 0zM771.04 -26.74 a7.5 7.5 0 1 0 15 0 a7.5 7.5 0 1 0 -15 0zM771.04 48.26 a7.5 7.5 0 1 0 15 0 a7.5 7.5 0 1 0 -15 0zM641.13 -26.74 a7.5 7.5 0 1 0 15 0 a7.5 7.5 0 1 0 -15 0zM706.09 385.76 a7.5 7.5 0 1 0 15 0 a7.5 7.5 0 1 0 -15 0zM771.04 423.26 a7.5 7.5 0 1 0 15 0 a7.5 7.5 0 1 0 -15 0zM771.04 498.26 a7.5 7.5 0 1 0 15 0 a7.5 7.5 0 1 0 -15 0zM641.13 423.26 a7.5 7.5 0 1 0 15 0 a7.5 7.5 0 1 0 -15 0zM836 535.76 a7.5 7.5 0 1 0 15 0 a7.5 7.5 0 1 0 -15 0zM836 610.76 a7.5 7.5 0 1 0 15 0 a7.5 7.5 0 1 0 -15 0zM771.04 648.26 a7.5 7.5 0 1 0 15 0 a7.5 7.5 0 1 0 -15 0zM900.95 273.26 a7.5 7.5 0 1 0 15 0 a7.5 7.5 0 1 0 -15 0zM965.9 310.76 a7.5 7.5 0 1 0 15 0 a7.5 7.5 0 1 0 -15 0zM965.9 385.76 a7.5 7.5 0 1 0 15 0 a7.5 7.5 0 1 0 -15 0zM900.95 423.26 a7.5 7.5 0 1 0 15 0 a7.5 7.5 0 1 0 -15 0zM835.99 385.76 a7.5 7.5 0 1 0 15 0 a7.5 7.5 0 1 0 -15 0zM835.99 310.76 a7.5 7.5 0 1 0 15 0 a7.5 7.5 0 1 0 -15 0zM900.95 498.26 a7.5 7.5 0 1 0 15 0 a7.5 7.5 0 1 0 -15 0zM835.99 535.76 a7.5 7.5 0 1 0 15 0 a7.5 7.5 0 1 0 -15 0zM965.9 160.76 a7.5 7.5 0 1 0 15 0 a7.5 7.5 0 1 0 -15 0zM1030.86 198.26 a7.5 7.5 0 1 0 15 0 a7.5 7.5 0 1 0 -15 0zM1030.86 273.26 a7.5 7.5 0 1 0 15 0 a7.5 7.5 0 1 0 -15 0zM900.95 198.26 a7.5 7.5 0 1 0 15 0 a7.5 7.5 0 1 0 -15 0zM1030.86 423.26 a7.5 7.5 0 1 0 15 0 a7.5 7.5 0 1 0 -15 0zM1030.86 498.26 a7.5 7.5 0 1 0 15 0 a7.5 7.5 0 1 0 -15 0zM965.9 535.76 a7.5 7.5 0 1 0 15 0 a7.5 7.5 0 1 0 -15 0zM1095.81 535.76 a7.5 7.5 0 1 0 15 0 a7.5 7.5 0 1 0 -15 0zM1095.81 610.76 a7.5 7.5 0 1 0 15 0 a7.5 7.5 0 1 0 -15 0zM1030.86 648.26 a7.5 7.5 0 1 0 15 0 a7.5 7.5 0 1 0 -15 0zM965.9 610.76 a7.5 7.5 0 1 0 15 0 a7.5 7.5 0 1 0 -15 0zM1095.81 -64.24 a7.5 7.5 0 1 0 15 0 a7.5 7.5 0 1 0 -15 0zM1160.76 -26.74 a7.5 7.5 0 1 0 15 0 a7.5 7.5 0 1 0 -15 0zM1160.76 48.26 a7.5 7.5 0 1 0 15 0 a7.5 7.5 0 1 0 -15 0zM1095.81 85.76 a7.5 7.5 0 1 0 15 0 a7.5 7.5 0 1 0 -15 0zM1030.86 48.26 a7.5 7.5 0 1 0 15 0 a7.5 7.5 0 1 0 -15 0zM1030.86 -26.74 a7.5 7.5 0 1 0 15 0 a7.5 7.5 0 1 0 -15 0zM1095.81 160.76 a7.5 7.5 0 1 0 15 0 a7.5 7.5 0 1 0 -15 0zM1160.76 198.26 a7.5 7.5 0 1 0 15 0 a7.5 7.5 0 1 0 -15 0zM1160.76 273.26 a7.5 7.5 0 1 0 15 0 a7.5 7.5 0 1 0 -15 0zM1095.81 310.76 a7.5 7.5 0 1 0 15 0 a7.5 7.5 0 1 0 -15 0zM1225.72 -64.24 a7.5 7.5 0 1 0 15 0 a7.5 7.5 0 1 0 -15 0zM1290.67 -26.74 a7.5 7.5 0 1 0 15 0 a7.5 7.5 0 1 0 -15 0zM1290.67 48.26 a7.5 7.5 0 1 0 15 0 a7.5 7.5 0 1 0 -15 0zM1225.72 85.76 a7.5 7.5 0 1 0 15 0 a7.5 7.5 0 1 0 -15 0zM1225.72 385.76 a7.5 7.5 0 1 0 15 0 a7.5 7.5 0 1 0 -15 0zM1290.67 423.26 a7.5 7.5 0 1 0 15 0 a7.5 7.5 0 1 0 -15 0zM1290.67 498.26 a7.5 7.5 0 1 0 15 0 a7.5 7.5 0 1 0 -15 0zM1225.72 535.76 a7.5 7.5 0 1 0 15 0 a7.5 7.5 0 1 0 -15 0zM1160.76 498.26 a7.5 7.5 0 1 0 15 0 a7.5 7.5 0 1 0 -15 0zM1160.76 423.26 a7.5 7.5 0 1 0 15 0 a7.5 7.5 0 1 0 -15 0zM1355.62 535.76 a7.5 7.5 0 1 0 15 0 a7.5 7.5 0 1 0 -15 0zM1355.62 610.76 a7.5 7.5 0 1 0 15 0 a7.5 7.5 0 1 0 -15 0zM1290.67 648.26 a7.5 7.5 0 1 0 15 0 a7.5 7.5 0 1 0 -15 0zM1225.72 610.76 a7.5 7.5 0 1 0 15 0 a7.5 7.5 0 1 0 -15 0zM1355.63 160.76 a7.5 7.5 0 1 0 15 0 a7.5 7.5 0 1 0 -15 0zM1420.58 198.26 a7.5 7.5 0 1 0 15 0 a7.5 7.5 0 1 0 -15 0zM1420.58 273.26 a7.5 7.5 0 1 0 15 0 a7.5 7.5 0 1 0 -15 0zM1355.63 310.76 a7.5 7.5 0 1 0 15 0 a7.5 7.5 0 1 0 -15 0zM1290.67 273.26 a7.5 7.5 0 1 0 15 0 a7.5 7.5 0 1 0 -15 0zM1290.67 198.26 a7.5 7.5 0 1 0 15 0 a7.5 7.5 0 1 0 -15 0zM1485.53 310.76 a7.5 7.5 0 1 0 15 0 a7.5 7.5 0 1 0 -15 0zM1485.53 385.76 a7.5 7.5 0 1 0 15 0 a7.5 7.5 0 1 0 -15 0zM1420.58 423.26 a7.5 7.5 0 1 0 15 0 a7.5 7.5 0 1 0 -15 0zM1355.63 385.76 a7.5 7.5 0 1 0 15 0 a7.5 7.5 0 1 0 -15 0zM1420.58 498.26 a7.5 7.5 0 1 0 15 0 a7.5 7.5 0 1 0 -15 0zM1355.63 535.76 a7.5 7.5 0 1 0 15 0 a7.5 7.5 0 1 0 -15 0zM1550.49 48.26 a7.5 7.5 0 1 0 15 0 a7.5 7.5 0 1 0 -15 0zM1615.44 85.76 a7.5 7.5 0 1 0 15 0 a7.5 7.5 0 1 0 -15 0zM1615.44 160.76 a7.5 7.5 0 1 0 15 0 a7.5 7.5 0 1 0 -15 0zM1550.49 198.26 a7.5 7.5 0 1 0 15 0 a7.5 7.5 0 1 0 -15 0zM1485.53 160.76 a7.5 7.5 0 1 0 15 0 a7.5 7.5 0 1 0 -15 0zM1485.53 85.76 a7.5 7.5 0 1 0 15 0 a7.5 7.5 0 1 0 -15 0zM1550.49 273.26 a7.5 7.5 0 1 0 15 0 a7.5 7.5 0 1 0 -15 0z" fill="#03305d"></path><path d="M53.01 236.52L150.87 293.02L150.87 406.02L53.01 462.52L-44.85 406.02L-44.85 293.02zM150.87 406.02L248.74 462.52L248.74 575.52L150.87 632.02L53.01 575.52L53.01 462.52zM248.74 236.52L346.6 293.02L346.6 406.02L248.74 462.52L150.87 406.02L150.87 293.02zM444.46 236.52L542.33 293.02L542.33 406.02L444.46 462.52L346.6 406.02L346.6 293.02zM542.33 406.02L640.19 462.52L640.19 575.52L542.33 632.02L444.46 575.52L444.46 462.52zM640.19 -102.48L738.06 -45.98L738.06 67.02L640.19 123.52L542.33 67.02L542.33 -45.98zM738.06 67.02L835.92 123.52L835.92 236.52L738.06 293.02L640.19 236.52L640.19 123.52zM835.92 -102.48L933.78 -45.98L933.78 67.02L835.92 123.52L738.06 67.02L738.06 -45.98zM933.78 67.02L1031.65 123.52L1031.65 236.52L933.78 293.02L835.92 236.52L835.92 123.52zM835.92 236.52L933.78 293.02L933.78 406.02L835.92 462.52L738.06 406.02L738.06 293.02zM1031.65 236.52L1129.51 293.02L1129.51 406.02L1031.65 462.52L933.78 406.02L933.78 293.02zM1129.51 406.02L1227.37 462.52L1227.37 575.52L1129.51 632.02L1031.65 575.52L1031.65 462.52zM1227.37 -102.48L1325.24 -45.98L1325.24 67.02L1227.37 123.52L1129.51 67.02L1129.51 -45.98zM1325.24 67.02L1423.1 123.52L1423.1 236.52L1325.24 293.02L1227.37 236.52L1227.37 123.52zM1227.37 236.52L1325.24 293.02L1325.24 406.02L1227.37 462.52L1129.51 406.02L1129.51 293.02zM1520.96 67.02L1618.83 123.52L1618.83 236.52L1520.96 293.02L1423.1 236.52L1423.1 123.52zM1423.1 236.52L1520.96 293.02L1520.96 406.02L1423.1 462.52L1325.24 406.02L1325.24 293.02zM1520.96 406.02L1618.83 462.52L1618.83 575.52L1520.96 632.02L1423.1 575.52L1423.1 462.52z" stroke="url(&quot;#SvgjsLinearGradient1427&quot;)" stroke-width="2"></path></g><defs><mask id="SvgjsMask1426"><rect width="1440" height="560" fill="#ffffff"></rect></mask><linearGradient x1="220.03199999999998" y1="780.024" x2="1219.9679999999998" y2="-220.02399999999997" gradientUnits="userSpaceOnUse" id="SvgjsLinearGradient1427"><stop stop-color="#0e2a47" offset="0"></stop><stop stop-color="rgba(204, 210, 218, 1)" offset="1"></stop></linearGradient></defs></svg>