<svg xmlns="http://www.w3.org/2000/svg" version="1.1" xmlns:xlink="http://www.w3.org/1999/xlink" xmlns:svgjs="http://svgjs.dev/svgjs" width="1440" height="579" preserveAspectRatio="none" viewBox="0 0 1440 579"><g mask="url(&quot;#SvgjsMask1046&quot;)" fill="none"><path d="M-40.36 350.08L-40.36 350.08" stroke="rgba(192, 194, 199, 1)" stroke-width="1.5"></path><path d="M-40.36 350.08L-94.04 515.59" stroke="rgba(192, 194, 199, 1)" stroke-width="1.5"></path><path d="M-40.36 350.08L44.72 538.98" stroke="rgba(192, 194, 199, 1)" stroke-width="1.5"></path><path d="M-40.36 350.08L253.36 522.41" stroke="rgba(192, 194, 199, 1)" stroke-width="1.5"></path><path d="M-40.36 350.08L-98.88 712.4" stroke="rgba(192, 194, 199, 1)" stroke-width="1.5"></path><path d="M-40.36 350.08L197.91 654.72" stroke="rgba(192, 194, 199, 1)" stroke-width="1.5"></path><path d="M-40.36 350.08L389.63 348.15" stroke="rgba(192, 194, 199, 1)" stroke-width="1.5"></path><path d="M-94.04 515.59L-94.04 515.59" stroke="rgba(192, 194, 199, 1)" stroke-width="1.5"></path><path d="M-94.04 515.59L44.72 538.98" stroke="rgba(192, 194, 199, 1)" stroke-width="1.5"></path><path d="M-98.88 712.4L-98.88 712.4" stroke="rgba(192, 194, 199, 1)" stroke-width="1.5"></path><path d="M-98.88 712.4L-94.04 515.59" stroke="rgba(192, 194, 199, 1)" stroke-width="1.5"></path><path d="M-98.88 712.4L44.72 538.98" stroke="rgba(192, 194, 199, 1)" stroke-width="1.5"></path><path d="M-98.88 712.4L197.91 654.72" stroke="rgba(192, 194, 199, 1)" stroke-width="1.5"></path><path d="M44.72 538.98L44.72 538.98" stroke="rgba(192, 194, 199, 1)" stroke-width="1.5"></path><path d="M44.72 538.98L197.91 654.72" stroke="rgba(192, 194, 199, 1)" stroke-width="1.5"></path><path d="M44.72 538.98L253.36 522.41" stroke="rgba(192, 194, 199, 1)" stroke-width="1.5"></path><path d="M253.36 522.41L253.36 522.41" stroke="rgba(192, 194, 199, 1)" stroke-width="1.5"></path><path d="M253.36 522.41L197.91 654.72" stroke="rgba(192, 194, 199, 1)" stroke-width="1.5"></path><path d="M253.36 522.41L397.79 499.51" stroke="rgba(192, 194, 199, 1)" stroke-width="1.5"></path><path d="M253.36 522.41L361.61 707.55" stroke="rgba(192, 194, 199, 1)" stroke-width="1.5"></path><path d="M197.91 654.72L197.91 654.72" stroke="rgba(192, 194, 199, 1)" stroke-width="1.5"></path><path d="M197.91 654.72L361.61 707.55" stroke="rgba(192, 194, 199, 1)" stroke-width="1.5"></path><path d="M389.63 348.15L389.63 348.15" stroke="rgba(192, 194, 199, 1)" stroke-width="1.5"></path><path d="M389.63 348.15L397.79 499.51" stroke="rgba(192, 194, 199, 1)" stroke-width="1.5"></path><path d="M389.63 348.15L558.49 406.59" stroke="rgba(192, 194, 199, 1)" stroke-width="1.5"></path><path d="M389.63 348.15L501.27 519.52" stroke="rgba(192, 194, 199, 1)" stroke-width="1.5"></path><path d="M389.63 348.15L253.36 522.41" stroke="rgba(192, 194, 199, 1)" stroke-width="1.5"></path><path d="M389.63 348.15L676.15 351.26" stroke="rgba(192, 194, 199, 1)" stroke-width="1.5"></path><path d="M389.63 348.15L684.73 246.5" stroke="rgba(192, 194, 199, 1)" stroke-width="1.5"></path><path d="M397.79 499.51L397.79 499.51" stroke="rgba(192, 194, 199, 1)" stroke-width="1.5"></path><path d="M397.79 499.51L501.27 519.52" stroke="rgba(192, 194, 199, 1)" stroke-width="1.5"></path><path d="M397.79 499.51L558.49 406.59" stroke="rgba(192, 194, 199, 1)" stroke-width="1.5"></path><path d="M397.79 499.51L361.61 707.55" stroke="rgba(192, 194, 199, 1)" stroke-width="1.5"></path><path d="M397.79 499.51L546.85 689.24" stroke="rgba(192, 194, 199, 1)" stroke-width="1.5"></path><path d="M361.61 707.55L361.61 707.55" stroke="rgba(192, 194, 199, 1)" stroke-width="1.5"></path><path d="M361.61 707.55L546.85 689.24" stroke="rgba(192, 194, 199, 1)" stroke-width="1.5"></path><path d="M558.49 406.59L558.49 406.59" stroke="rgba(192, 194, 199, 1)" stroke-width="1.5"></path><path d="M558.49 406.59L501.27 519.52" stroke="rgba(192, 194, 199, 1)" stroke-width="1.5"></path><path d="M558.49 406.59L676.15 351.26" stroke="rgba(192, 194, 199, 1)" stroke-width="1.5"></path><path d="M558.49 406.59L678.78 499.03" stroke="rgba(192, 194, 199, 1)" stroke-width="1.5"></path><path d="M501.27 519.52L501.27 519.52" stroke="rgba(192, 194, 199, 1)" stroke-width="1.5"></path><path d="M546.85 689.24L546.85 689.24" stroke="rgba(192, 194, 199, 1)" stroke-width="1.5"></path><path d="M546.85 689.24L665.01 651.28" stroke="rgba(192, 194, 199, 1)" stroke-width="1.5"></path><path d="M546.85 689.24L501.27 519.52" stroke="rgba(192, 194, 199, 1)" stroke-width="1.5"></path><path d="M684.73 246.5L684.73 246.5" stroke="rgba(192, 194, 199, 1)" stroke-width="1.5"></path><path d="M684.73 246.5L676.15 351.26" stroke="rgba(192, 194, 199, 1)" stroke-width="1.5"></path><path d="M684.73 246.5L851.68 202.48" stroke="rgba(192, 194, 199, 1)" stroke-width="1.5"></path><path d="M684.73 246.5L558.49 406.59" stroke="rgba(192, 194, 199, 1)" stroke-width="1.5"></path><path d="M684.73 246.5L858.58 379.67" stroke="rgba(192, 194, 199, 1)" stroke-width="1.5"></path><path d="M684.73 246.5L678.78 499.03" stroke="rgba(192, 194, 199, 1)" stroke-width="1.5"></path><path d="M676.15 351.26L676.15 351.26" stroke="rgba(192, 194, 199, 1)" stroke-width="1.5"></path><path d="M676.15 351.26L678.78 499.03" stroke="rgba(192, 194, 199, 1)" stroke-width="1.5"></path><path d="M678.78 499.03L678.78 499.03" stroke="rgba(192, 194, 199, 1)" stroke-width="1.5"></path><path d="M678.78 499.03L665.01 651.28" stroke="rgba(192, 194, 199, 1)" stroke-width="1.5"></path><path d="M665.01 651.28L665.01 651.28" stroke="rgba(192, 194, 199, 1)" stroke-width="1.5"></path><path d="M851.68 202.48L851.68 202.48" stroke="rgba(192, 194, 199, 1)" stroke-width="1.5"></path><path d="M851.68 202.48L952.56 226.15" stroke="rgba(192, 194, 199, 1)" stroke-width="1.5"></path><path d="M851.68 202.48L965.53 91.02" stroke="rgba(192, 194, 199, 1)" stroke-width="1.5"></path><path d="M851.68 202.48L944.64 340.34" stroke="rgba(192, 194, 199, 1)" stroke-width="1.5"></path><path d="M858.58 379.67L858.58 379.67" stroke="rgba(192, 194, 199, 1)" stroke-width="1.5"></path><path d="M858.58 379.67L944.64 340.34" stroke="rgba(192, 194, 199, 1)" stroke-width="1.5"></path><path d="M858.58 379.67L832.12 517.71" stroke="rgba(192, 194, 199, 1)" stroke-width="1.5"></path><path d="M858.58 379.67L851.68 202.48" stroke="rgba(192, 194, 199, 1)" stroke-width="1.5"></path><path d="M858.58 379.67L952.56 226.15" stroke="rgba(192, 194, 199, 1)" stroke-width="1.5"></path><path d="M858.58 379.67L676.15 351.26" stroke="rgba(192, 194, 199, 1)" stroke-width="1.5"></path><path d="M858.58 379.67L985.08 523.74" stroke="rgba(192, 194, 199, 1)" stroke-width="1.5"></path><path d="M832.12 517.71L832.12 517.71" stroke="rgba(192, 194, 199, 1)" stroke-width="1.5"></path><path d="M832.12 517.71L985.08 523.74" stroke="rgba(192, 194, 199, 1)" stroke-width="1.5"></path><path d="M832.12 517.71L678.78 499.03" stroke="rgba(192, 194, 199, 1)" stroke-width="1.5"></path><path d="M828.11 708.43L828.11 708.43" stroke="rgba(192, 194, 199, 1)" stroke-width="1.5"></path><path d="M828.11 708.43L965.62 701.09" stroke="rgba(192, 194, 199, 1)" stroke-width="1.5"></path><path d="M828.11 708.43L665.01 651.28" stroke="rgba(192, 194, 199, 1)" stroke-width="1.5"></path><path d="M828.11 708.43L832.12 517.71" stroke="rgba(192, 194, 199, 1)" stroke-width="1.5"></path><path d="M945.53 -110.84L945.53 -110.84" stroke="rgba(192, 194, 199, 1)" stroke-width="1.5"></path><path d="M945.53 -110.84L1111.58 -51.73" stroke="rgba(192, 194, 199, 1)" stroke-width="1.5"></path><path d="M945.53 -110.84L965.53 91.02" stroke="rgba(192, 194, 199, 1)" stroke-width="1.5"></path><path d="M965.53 91.02L965.53 91.02" stroke="rgba(192, 194, 199, 1)" stroke-width="1.5"></path><path d="M965.53 91.02L952.56 226.15" stroke="rgba(192, 194, 199, 1)" stroke-width="1.5"></path><path d="M965.53 91.02L1106.3 91.43" stroke="rgba(192, 194, 199, 1)" stroke-width="1.5"></path><path d="M952.56 226.15L952.56 226.15" stroke="rgba(192, 194, 199, 1)" stroke-width="1.5"></path><path d="M952.56 226.15L944.64 340.34" stroke="rgba(192, 194, 199, 1)" stroke-width="1.5"></path><path d="M952.56 226.15L1141.79 213.32" stroke="rgba(192, 194, 199, 1)" stroke-width="1.5"></path><path d="M952.56 226.15L1106.3 91.43" stroke="rgba(192, 194, 199, 1)" stroke-width="1.5"></path><path d="M944.64 340.34L944.64 340.34" stroke="rgba(192, 194, 199, 1)" stroke-width="1.5"></path><path d="M985.08 523.74L985.08 523.74" stroke="rgba(192, 194, 199, 1)" stroke-width="1.5"></path><path d="M985.08 523.74L1102.57 545.71" stroke="rgba(192, 194, 199, 1)" stroke-width="1.5"></path><path d="M985.08 523.74L965.62 701.09" stroke="rgba(192, 194, 199, 1)" stroke-width="1.5"></path><path d="M965.62 701.09L965.62 701.09" stroke="rgba(192, 194, 199, 1)" stroke-width="1.5"></path><path d="M965.62 701.09L1109.62 684.92" stroke="rgba(192, 194, 199, 1)" stroke-width="1.5"></path><path d="M965.62 701.09L1102.57 545.71" stroke="rgba(192, 194, 199, 1)" stroke-width="1.5"></path><path d="M965.62 701.09L832.12 517.71" stroke="rgba(192, 194, 199, 1)" stroke-width="1.5"></path><path d="M1111.58 -51.73L1111.58 -51.73" stroke="rgba(192, 194, 199, 1)" stroke-width="1.5"></path><path d="M1111.58 -51.73L1106.3 91.43" stroke="rgba(192, 194, 199, 1)" stroke-width="1.5"></path><path d="M1111.58 -51.73L1270.8 -43.73" stroke="rgba(192, 194, 199, 1)" stroke-width="1.5"></path><path d="M1106.3 91.43L1106.3 91.43" stroke="rgba(192, 194, 199, 1)" stroke-width="1.5"></path><path d="M1106.3 91.43L1141.79 213.32" stroke="rgba(192, 194, 199, 1)" stroke-width="1.5"></path><path d="M1106.3 91.43L1246.04 63.45" stroke="rgba(192, 194, 199, 1)" stroke-width="1.5"></path><path d="M1106.3 91.43L1238.61 257.72" stroke="rgba(192, 194, 199, 1)" stroke-width="1.5"></path><path d="M1141.79 213.32L1141.79 213.32" stroke="rgba(192, 194, 199, 1)" stroke-width="1.5"></path><path d="M1141.79 213.32L1238.61 257.72" stroke="rgba(192, 194, 199, 1)" stroke-width="1.5"></path><path d="M1141.83 401.14L1141.83 401.14" stroke="rgba(192, 194, 199, 1)" stroke-width="1.5"></path><path d="M1141.83 401.14L1102.57 545.71" stroke="rgba(192, 194, 199, 1)" stroke-width="1.5"></path><path d="M1141.83 401.14L1288.27 339.88" stroke="rgba(192, 194, 199, 1)" stroke-width="1.5"></path><path d="M1141.83 401.14L1238.61 257.72" stroke="rgba(192, 194, 199, 1)" stroke-width="1.5"></path><path d="M1141.83 401.14L1141.79 213.32" stroke="rgba(192, 194, 199, 1)" stroke-width="1.5"></path><path d="M1141.83 401.14L985.08 523.74" stroke="rgba(192, 194, 199, 1)" stroke-width="1.5"></path><path d="M1102.57 545.71L1102.57 545.71" stroke="rgba(192, 194, 199, 1)" stroke-width="1.5"></path><path d="M1102.57 545.71L1109.62 684.92" stroke="rgba(192, 194, 199, 1)" stroke-width="1.5"></path><path d="M1109.62 684.92L1109.62 684.92" stroke="rgba(192, 194, 199, 1)" stroke-width="1.5"></path><path d="M1109.62 684.92L1288.05 680.38" stroke="rgba(192, 194, 199, 1)" stroke-width="1.5"></path><path d="M1109.62 684.92L985.08 523.74" stroke="rgba(192, 194, 199, 1)" stroke-width="1.5"></path><path d="M1109.62 684.92L828.11 708.43" stroke="rgba(192, 194, 199, 1)" stroke-width="1.5"></path><path d="M1109.62 684.92L1141.83 401.14" stroke="rgba(192, 194, 199, 1)" stroke-width="1.5"></path><path d="M1270.8 -43.73L1270.8 -43.73" stroke="rgba(192, 194, 199, 1)" stroke-width="1.5"></path><path d="M1270.8 -43.73L1246.04 63.45" stroke="rgba(192, 194, 199, 1)" stroke-width="1.5"></path><path d="M1270.8 -43.73L1446.26 -49.37" stroke="rgba(192, 194, 199, 1)" stroke-width="1.5"></path><path d="M1270.8 -43.73L1106.3 91.43" stroke="rgba(192, 194, 199, 1)" stroke-width="1.5"></path><path d="M1270.8 -43.73L1445.88 96.29" stroke="rgba(192, 194, 199, 1)" stroke-width="1.5"></path><path d="M1246.04 63.45L1246.04 63.45" stroke="rgba(192, 194, 199, 1)" stroke-width="1.5"></path><path d="M1246.04 63.45L1111.58 -51.73" stroke="rgba(192, 194, 199, 1)" stroke-width="1.5"></path><path d="M1246.04 63.45L1141.79 213.32" stroke="rgba(192, 194, 199, 1)" stroke-width="1.5"></path><path d="M1246.04 63.45L1238.61 257.72" stroke="rgba(192, 194, 199, 1)" stroke-width="1.5"></path><path d="M1238.61 257.72L1238.61 257.72" stroke="rgba(192, 194, 199, 1)" stroke-width="1.5"></path><path d="M1238.61 257.72L1288.27 339.88" stroke="rgba(192, 194, 199, 1)" stroke-width="1.5"></path><path d="M1238.61 257.72L1396.48 250.6" stroke="rgba(192, 194, 199, 1)" stroke-width="1.5"></path><path d="M1288.27 339.88L1288.27 339.88" stroke="rgba(192, 194, 199, 1)" stroke-width="1.5"></path><path d="M1288.05 680.38L1288.05 680.38" stroke="rgba(192, 194, 199, 1)" stroke-width="1.5"></path><path d="M1288.05 680.38L1453.15 705.74" stroke="rgba(192, 194, 199, 1)" stroke-width="1.5"></path><path d="M1288.05 680.38L1390.15 544.01" stroke="rgba(192, 194, 199, 1)" stroke-width="1.5"></path><path d="M1288.05 680.38L1102.57 545.71" stroke="rgba(192, 194, 199, 1)" stroke-width="1.5"></path><path d="M1288.05 680.38L1584.79 704.51" stroke="rgba(192, 194, 199, 1)" stroke-width="1.5"></path><path d="M1446.26 -49.37L1446.26 -49.37" stroke="rgba(192, 194, 199, 1)" stroke-width="1.5"></path><path d="M1446.26 -49.37L1544.74 -60.17" stroke="rgba(192, 194, 199, 1)" stroke-width="1.5"></path><path d="M1446.26 -49.37L1445.88 96.29" stroke="rgba(192, 194, 199, 1)" stroke-width="1.5"></path><path d="M1446.26 -49.37L1570.32 110.12" stroke="rgba(192, 194, 199, 1)" stroke-width="1.5"></path><path d="M1445.88 96.29L1445.88 96.29" stroke="rgba(192, 194, 199, 1)" stroke-width="1.5"></path><path d="M1445.88 96.29L1570.32 110.12" stroke="rgba(192, 194, 199, 1)" stroke-width="1.5"></path><path d="M1445.88 96.29L1396.48 250.6" stroke="rgba(192, 194, 199, 1)" stroke-width="1.5"></path><path d="M1396.48 250.6L1396.48 250.6" stroke="rgba(192, 194, 199, 1)" stroke-width="1.5"></path><path d="M1396.48 250.6L1413.33 356.9" stroke="rgba(192, 194, 199, 1)" stroke-width="1.5"></path><path d="M1413.33 356.9L1413.33 356.9" stroke="rgba(192, 194, 199, 1)" stroke-width="1.5"></path><path d="M1413.33 356.9L1288.27 339.88" stroke="rgba(192, 194, 199, 1)" stroke-width="1.5"></path><path d="M1413.33 356.9L1556.98 382.12" stroke="rgba(192, 194, 199, 1)" stroke-width="1.5"></path><path d="M1413.33 356.9L1390.15 544.01" stroke="rgba(192, 194, 199, 1)" stroke-width="1.5"></path><path d="M1390.15 544.01L1390.15 544.01" stroke="rgba(192, 194, 199, 1)" stroke-width="1.5"></path><path d="M1390.15 544.01L1453.15 705.74" stroke="rgba(192, 194, 199, 1)" stroke-width="1.5"></path><path d="M1390.15 544.01L1566.65 545.61" stroke="rgba(192, 194, 199, 1)" stroke-width="1.5"></path><path d="M1390.15 544.01L1288.27 339.88" stroke="rgba(192, 194, 199, 1)" stroke-width="1.5"></path><path d="M1390.15 544.01L1556.98 382.12" stroke="rgba(192, 194, 199, 1)" stroke-width="1.5"></path><path d="M1453.15 705.74L1453.15 705.74" stroke="rgba(192, 194, 199, 1)" stroke-width="1.5"></path><path d="M1453.15 705.74L1584.79 704.51" stroke="rgba(192, 194, 199, 1)" stroke-width="1.5"></path><path d="M1453.15 705.74L1566.65 545.61" stroke="rgba(192, 194, 199, 1)" stroke-width="1.5"></path><path d="M1544.74 -60.17L1544.74 -60.17" stroke="rgba(192, 194, 199, 1)" stroke-width="1.5"></path><path d="M1544.74 -60.17L1570.32 110.12" stroke="rgba(192, 194, 199, 1)" stroke-width="1.5"></path><path d="M1570.32 110.12L1570.32 110.12" stroke="rgba(192, 194, 199, 1)" stroke-width="1.5"></path><path d="M1570.32 110.12L1611.29 240.02" stroke="rgba(192, 194, 199, 1)" stroke-width="1.5"></path><path d="M1570.32 110.12L1396.48 250.6" stroke="rgba(192, 194, 199, 1)" stroke-width="1.5"></path><path d="M1611.29 240.02L1611.29 240.02" stroke="rgba(192, 194, 199, 1)" stroke-width="1.5"></path><path d="M1611.29 240.02L1556.98 382.12" stroke="rgba(192, 194, 199, 1)" stroke-width="1.5"></path><path d="M1611.29 240.02L1396.48 250.6" stroke="rgba(192, 194, 199, 1)" stroke-width="1.5"></path><path d="M1556.98 382.12L1556.98 382.12" stroke="rgba(192, 194, 199, 1)" stroke-width="1.5"></path><path d="M1566.65 545.61L1566.65 545.61" stroke="rgba(192, 194, 199, 1)" stroke-width="1.5"></path><path d="M1566.65 545.61L1584.79 704.51" stroke="rgba(192, 194, 199, 1)" stroke-width="1.5"></path><path d="M1566.65 545.61L1556.98 382.12" stroke="rgba(192, 194, 199, 1)" stroke-width="1.5"></path><path d="M1584.79 704.51L1584.79 704.51" stroke="rgba(192, 194, 199, 1)" stroke-width="1.5"></path><path d="M1584.79 704.51L1390.15 544.01" stroke="rgba(192, 194, 199, 1)" stroke-width="1.5"></path><path d="M1584.79 704.51L1556.98 382.12" stroke="rgba(192, 194, 199, 1)" stroke-width="1.5"></path><circle r="5" cx="-40.36" cy="350.08" fill="rgba(192, 194, 199, 1)"></circle><circle r="5" cx="-94.04" cy="515.59" fill="rgba(192, 194, 199, 1)"></circle><circle r="5" cx="-98.88" cy="712.4" fill="rgba(192, 194, 199, 1)"></circle><circle r="5" cx="44.72" cy="538.98" fill="rgba(192, 194, 199, 1)"></circle><circle r="5" cx="253.36" cy="522.41" fill="rgba(192, 194, 199, 1)"></circle><circle r="5" cx="197.91" cy="654.72" fill="rgba(192, 194, 199, 1)"></circle><circle r="5" cx="389.63" cy="348.15" fill="rgba(192, 194, 199, 1)"></circle><circle r="5" cx="397.79" cy="499.51" fill="rgba(192, 194, 199, 1)"></circle><circle r="5" cx="361.61" cy="707.55" fill="rgba(192, 194, 199, 1)"></circle><circle r="5" cx="558.49" cy="406.59" fill="rgba(192, 194, 199, 1)"></circle><circle r="5" cx="501.27" cy="519.52" fill="rgba(192, 194, 199, 1)"></circle><circle r="5" cx="546.85" cy="689.24" fill="rgba(192, 194, 199, 1)"></circle><circle r="5" cx="684.73" cy="246.5" fill="rgba(192, 194, 199, 1)"></circle><circle r="5" cx="676.15" cy="351.26" fill="rgba(192, 194, 199, 1)"></circle><circle r="5" cx="678.78" cy="499.03" fill="rgba(192, 194, 199, 1)"></circle><circle r="5" cx="665.01" cy="651.28" fill="rgba(192, 194, 199, 1)"></circle><circle r="5" cx="851.68" cy="202.48" fill="rgba(192, 194, 199, 1)"></circle><circle r="5" cx="858.58" cy="379.67" fill="rgba(192, 194, 199, 1)"></circle><circle r="5" cx="832.12" cy="517.71" fill="rgba(192, 194, 199, 1)"></circle><circle r="5" cx="828.11" cy="708.43" fill="rgba(192, 194, 199, 1)"></circle><circle r="5" cx="945.53" cy="-110.84" fill="rgba(192, 194, 199, 1)"></circle><circle r="5" cx="965.53" cy="91.02" fill="rgba(192, 194, 199, 1)"></circle><circle r="5" cx="952.56" cy="226.15" fill="rgba(192, 194, 199, 1)"></circle><circle r="5" cx="944.64" cy="340.34" fill="rgba(192, 194, 199, 1)"></circle><circle r="5" cx="985.08" cy="523.74" fill="rgba(192, 194, 199, 1)"></circle><circle r="5" cx="965.62" cy="701.09" fill="rgba(192, 194, 199, 1)"></circle><circle r="5" cx="1111.58" cy="-51.73" fill="rgba(192, 194, 199, 1)"></circle><circle r="5" cx="1106.3" cy="91.43" fill="rgba(192, 194, 199, 1)"></circle><circle r="5" cx="1141.79" cy="213.32" fill="rgba(192, 194, 199, 1)"></circle><circle r="5" cx="1141.83" cy="401.14" fill="rgba(192, 194, 199, 1)"></circle><circle r="5" cx="1102.57" cy="545.71" fill="rgba(192, 194, 199, 1)"></circle><circle r="5" cx="1109.62" cy="684.92" fill="rgba(192, 194, 199, 1)"></circle><circle r="5" cx="1270.8" cy="-43.73" fill="rgba(192, 194, 199, 1)"></circle><circle r="5" cx="1246.04" cy="63.45" fill="rgba(192, 194, 199, 1)"></circle><circle r="5" cx="1238.61" cy="257.72" fill="rgba(192, 194, 199, 1)"></circle><circle r="5" cx="1288.27" cy="339.88" fill="rgba(192, 194, 199, 1)"></circle><circle r="5" cx="1288.05" cy="680.38" fill="rgba(192, 194, 199, 1)"></circle><circle r="5" cx="1446.26" cy="-49.37" fill="rgba(192, 194, 199, 1)"></circle><circle r="5" cx="1445.88" cy="96.29" fill="rgba(192, 194, 199, 1)"></circle><circle r="5" cx="1396.48" cy="250.6" fill="rgba(192, 194, 199, 1)"></circle><circle r="5" cx="1413.33" cy="356.9" fill="rgba(192, 194, 199, 1)"></circle><circle r="5" cx="1390.15" cy="544.01" fill="rgba(192, 194, 199, 1)"></circle><circle r="5" cx="1453.15" cy="705.74" fill="rgba(192, 194, 199, 1)"></circle><circle r="5" cx="1544.74" cy="-60.17" fill="rgba(192, 194, 199, 1)"></circle><circle r="5" cx="1570.32" cy="110.12" fill="rgba(192, 194, 199, 1)"></circle><circle r="5" cx="1611.29" cy="240.02" fill="rgba(192, 194, 199, 1)"></circle><circle r="5" cx="1556.98" cy="382.12" fill="rgba(192, 194, 199, 1)"></circle><circle r="5" cx="1566.65" cy="545.61" fill="rgba(192, 194, 199, 1)"></circle><circle r="5" cx="1584.79" cy="704.51" fill="rgba(192, 194, 199, 1)"></circle><path d="M244.84 509.21L244.84 509.21" stroke="hsl(0, 0%, 0%)" stroke-width="1.5"></path><path d="M244.84 509.21L386.2 516.39" stroke="hsl(0, 0%, 0%)" stroke-width="1.5"></path><path d="M347.73 693.05L347.73 693.05" stroke="hsl(0, 0%, 0%)" stroke-width="1.5"></path><path d="M347.73 693.05L257.83 662" stroke="hsl(0, 0%, 0%)" stroke-width="1.5"></path><path d="M347.73 693.05L515.09 651.32" stroke="hsl(0, 0%, 0%)" stroke-width="1.5"></path><path d="M347.73 693.05L386.2 516.39" stroke="hsl(0, 0%, 0%)" stroke-width="1.5"></path><path d="M347.73 693.05L244.84 509.21" stroke="hsl(0, 0%, 0%)" stroke-width="1.5"></path><path d="M347.73 693.05L519.16 516.38" stroke="hsl(0, 0%, 0%)" stroke-width="1.5"></path><path d="M347.73 693.05L56.08 670.37" stroke="hsl(0, 0%, 0%)" stroke-width="1.5"></path><path d="M694.29 531.53L694.29 531.53" stroke="hsl(0, 0%, 0%)" stroke-width="1.5"></path><path d="M694.29 531.53L819.22 543.54" stroke="hsl(0, 0%, 0%)" stroke-width="1.5"></path><path d="M694.29 531.53L712.31 390.86" stroke="hsl(0, 0%, 0%)" stroke-width="1.5"></path><path d="M694.29 531.53L519.16 516.38" stroke="hsl(0, 0%, 0%)" stroke-width="1.5"></path><path d="M694.29 531.53L846.9 657.43" stroke="hsl(0, 0%, 0%)" stroke-width="1.5"></path><path d="M694.29 531.53L515.09 651.32" stroke="hsl(0, 0%, 0%)" stroke-width="1.5"></path><path d="M839.78 372.32L839.78 372.32" stroke="hsl(0, 0%, 0%)" stroke-width="1.5"></path><path d="M839.78 372.32L712.31 390.86" stroke="hsl(0, 0%, 0%)" stroke-width="1.5"></path><path d="M839.78 372.32L994.12 362.69" stroke="hsl(0, 0%, 0%)" stroke-width="1.5"></path><path d="M839.78 372.32L819.22 543.54" stroke="hsl(0, 0%, 0%)" stroke-width="1.5"></path><path d="M839.78 372.32L939.82 529.56" stroke="hsl(0, 0%, 0%)" stroke-width="1.5"></path><path d="M839.78 372.32L694.29 531.53" stroke="hsl(0, 0%, 0%)" stroke-width="1.5"></path><path d="M819.22 543.54L819.22 543.54" stroke="hsl(0, 0%, 0%)" stroke-width="1.5"></path><path d="M819.22 543.54L846.9 657.43" stroke="hsl(0, 0%, 0%)" stroke-width="1.5"></path><path d="M819.22 543.54L939.82 529.56" stroke="hsl(0, 0%, 0%)" stroke-width="1.5"></path><path d="M819.22 543.54L712.31 390.86" stroke="hsl(0, 0%, 0%)" stroke-width="1.5"></path><path d="M1102.06 510.67L1102.06 510.67" stroke="hsl(0, 0%, 0%)" stroke-width="1.5"></path><path d="M1102.06 510.67L1123.44 372.13" stroke="hsl(0, 0%, 0%)" stroke-width="1.5"></path><path d="M1102.06 510.67L1240.99 539.77" stroke="hsl(0, 0%, 0%)" stroke-width="1.5"></path><path d="M1102.06 510.67L939.82 529.56" stroke="hsl(0, 0%, 0%)" stroke-width="1.5"></path><path d="M1102.06 510.67L1144.69 679.63" stroke="hsl(0, 0%, 0%)" stroke-width="1.5"></path><path d="M1102.06 510.67L994.12 362.69" stroke="hsl(0, 0%, 0%)" stroke-width="1.5"></path><path d="M1102.06 510.67L1011.99 671.89" stroke="hsl(0, 0%, 0%)" stroke-width="1.5"></path><path d="M1144.69 679.63L1144.69 679.63" stroke="hsl(0, 0%, 0%)" stroke-width="1.5"></path><path d="M1144.69 679.63L1240.06 694.5" stroke="hsl(0, 0%, 0%)" stroke-width="1.5"></path><path d="M1144.69 679.63L1011.99 671.89" stroke="hsl(0, 0%, 0%)" stroke-width="1.5"></path><path d="M1144.69 679.63L1240.99 539.77" stroke="hsl(0, 0%, 0%)" stroke-width="1.5"></path><path d="M1295.56 374.62L1295.56 374.62" stroke="hsl(0, 0%, 0%)" stroke-width="1.5"></path><path d="M1295.56 374.62L1388.26 408.74" stroke="hsl(0, 0%, 0%)" stroke-width="1.5"></path><path d="M1295.56 374.62L1418.79 490.46" stroke="hsl(0, 0%, 0%)" stroke-width="1.5"></path><path d="M1295.56 374.62L1123.44 372.13" stroke="hsl(0, 0%, 0%)" stroke-width="1.5"></path><path d="M1295.56 374.62L1240.99 539.77" stroke="hsl(0, 0%, 0%)" stroke-width="1.5"></path><path d="M1295.56 374.62L1391.45 213.72" stroke="hsl(0, 0%, 0%)" stroke-width="1.5"></path><path d="M1240.06 694.5L1240.06 694.5" stroke="hsl(0, 0%, 0%)" stroke-width="1.5"></path><path d="M1240.06 694.5L1240.99 539.77" stroke="hsl(0, 0%, 0%)" stroke-width="1.5"></path><path d="M1240.06 694.5L1432.05 675.22" stroke="hsl(0, 0%, 0%)" stroke-width="1.5"></path><path d="M1240.06 694.5L1011.99 671.89" stroke="hsl(0, 0%, 0%)" stroke-width="1.5"></path><path d="M1240.06 694.5L1102.06 510.67" stroke="hsl(0, 0%, 0%)" stroke-width="1.5"></path><path d="M1388.26 408.74L1388.26 408.74" stroke="hsl(0, 0%, 0%)" stroke-width="1.5"></path><path d="M1388.26 408.74L1418.79 490.46" stroke="hsl(0, 0%, 0%)" stroke-width="1.5"></path><path d="M1388.26 408.74L1391.45 213.72" stroke="hsl(0, 0%, 0%)" stroke-width="1.5"></path><path d="M-37.64 488.17L-37.64 488.17" stroke="hsl(0, 0%, 0%)" stroke-width="1.5"></path><path d="M-37.64 488.17L62.48 556.91" stroke="hsl(0, 0%, 0%)" stroke-width="1.5"></path><path d="M-37.64 488.17L-46.67 671.9" stroke="hsl(0, 0%, 0%)" stroke-width="1.5"></path><path d="M-37.64 488.17L56.08 670.37" stroke="hsl(0, 0%, 0%)" stroke-width="1.5"></path><path d="M-46.67 671.9L-46.67 671.9" stroke="hsl(0, 0%, 0%)" stroke-width="1.5"></path><path d="M-46.67 671.9L56.08 670.37" stroke="hsl(0, 0%, 0%)" stroke-width="1.5"></path><path d="M-46.67 671.9L62.48 556.91" stroke="hsl(0, 0%, 0%)" stroke-width="1.5"></path><path d="M-46.67 671.9L257.83 662" stroke="hsl(0, 0%, 0%)" stroke-width="1.5"></path><path d="M62.48 556.91L62.48 556.91" stroke="hsl(0, 0%, 0%)" stroke-width="1.5"></path><path d="M62.48 556.91L56.08 670.37" stroke="hsl(0, 0%, 0%)" stroke-width="1.5"></path><path d="M62.48 556.91L244.84 509.21" stroke="hsl(0, 0%, 0%)" stroke-width="1.5"></path><path d="M62.48 556.91L257.83 662" stroke="hsl(0, 0%, 0%)" stroke-width="1.5"></path><path d="M56.08 670.37L56.08 670.37" stroke="hsl(0, 0%, 0%)" stroke-width="1.5"></path><path d="M56.08 670.37L257.83 662" stroke="hsl(0, 0%, 0%)" stroke-width="1.5"></path><path d="M257.83 662L257.83 662" stroke="hsl(0, 0%, 0%)" stroke-width="1.5"></path><path d="M257.83 662L244.84 509.21" stroke="hsl(0, 0%, 0%)" stroke-width="1.5"></path><path d="M257.83 662L386.2 516.39" stroke="hsl(0, 0%, 0%)" stroke-width="1.5"></path><path d="M386.2 516.39L386.2 516.39" stroke="hsl(0, 0%, 0%)" stroke-width="1.5"></path><path d="M386.2 516.39L519.16 516.38" stroke="hsl(0, 0%, 0%)" stroke-width="1.5"></path><path d="M519.16 516.38L519.16 516.38" stroke="hsl(0, 0%, 0%)" stroke-width="1.5"></path><path d="M519.16 516.38L515.09 651.32" stroke="hsl(0, 0%, 0%)" stroke-width="1.5"></path><path d="M515.09 651.32L515.09 651.32" stroke="hsl(0, 0%, 0%)" stroke-width="1.5"></path><path d="M515.09 651.32L386.2 516.39" stroke="hsl(0, 0%, 0%)" stroke-width="1.5"></path><path d="M515.09 651.32L257.83 662" stroke="hsl(0, 0%, 0%)" stroke-width="1.5"></path><path d="M712.31 390.86L712.31 390.86" stroke="hsl(0, 0%, 0%)" stroke-width="1.5"></path><path d="M712.31 390.86L519.16 516.38" stroke="hsl(0, 0%, 0%)" stroke-width="1.5"></path><path d="M712.31 390.86L939.82 529.56" stroke="hsl(0, 0%, 0%)" stroke-width="1.5"></path><path d="M712.31 390.86L994.12 362.69" stroke="hsl(0, 0%, 0%)" stroke-width="1.5"></path><path d="M846.9 657.43L846.9 657.43" stroke="hsl(0, 0%, 0%)" stroke-width="1.5"></path><path d="M846.9 657.43L939.82 529.56" stroke="hsl(0, 0%, 0%)" stroke-width="1.5"></path><path d="M846.9 657.43L1011.99 671.89" stroke="hsl(0, 0%, 0%)" stroke-width="1.5"></path><path d="M846.9 657.43L839.78 372.32" stroke="hsl(0, 0%, 0%)" stroke-width="1.5"></path><path d="M846.9 657.43L1102.06 510.67" stroke="hsl(0, 0%, 0%)" stroke-width="1.5"></path><path d="M994.12 362.69L994.12 362.69" stroke="hsl(0, 0%, 0%)" stroke-width="1.5"></path><path d="M994.12 362.69L1123.44 372.13" stroke="hsl(0, 0%, 0%)" stroke-width="1.5"></path><path d="M994.12 362.69L939.82 529.56" stroke="hsl(0, 0%, 0%)" stroke-width="1.5"></path><path d="M994.12 362.69L819.22 543.54" stroke="hsl(0, 0%, 0%)" stroke-width="1.5"></path><path d="M939.82 529.56L939.82 529.56" stroke="hsl(0, 0%, 0%)" stroke-width="1.5"></path><path d="M939.82 529.56L1011.99 671.89" stroke="hsl(0, 0%, 0%)" stroke-width="1.5"></path><path d="M1011.99 671.89L1011.99 671.89" stroke="hsl(0, 0%, 0%)" stroke-width="1.5"></path><path d="M1123.44 372.13L1123.44 372.13" stroke="hsl(0, 0%, 0%)" stroke-width="1.5"></path><path d="M1123.44 372.13L1240.99 539.77" stroke="hsl(0, 0%, 0%)" stroke-width="1.5"></path><path d="M1123.44 372.13L939.82 529.56" stroke="hsl(0, 0%, 0%)" stroke-width="1.5"></path><path d="M1123.44 372.13L1388.26 408.74" stroke="hsl(0, 0%, 0%)" stroke-width="1.5"></path><path d="M1262.63 -109.02L1262.63 -109.02" stroke="hsl(0, 0%, 0%)" stroke-width="1.5"></path><path d="M1262.63 -109.02L1290.31 69.9" stroke="hsl(0, 0%, 0%)" stroke-width="1.5"></path><path d="M1262.63 -109.02L1539.64 -44.38" stroke="hsl(0, 0%, 0%)" stroke-width="1.5"></path><path d="M1290.31 69.9L1290.31 69.9" stroke="hsl(0, 0%, 0%)" stroke-width="1.5"></path><path d="M1290.31 69.9L1455.58 105.51" stroke="hsl(0, 0%, 0%)" stroke-width="1.5"></path><path d="M1290.31 69.9L1391.45 213.72" stroke="hsl(0, 0%, 0%)" stroke-width="1.5"></path><path d="M1290.31 69.9L1539.64 -44.38" stroke="hsl(0, 0%, 0%)" stroke-width="1.5"></path><path d="M1290.31 69.9L1576.61 69.82" stroke="hsl(0, 0%, 0%)" stroke-width="1.5"></path><path d="M1240.99 539.77L1240.99 539.77" stroke="hsl(0, 0%, 0%)" stroke-width="1.5"></path><path d="M1455.58 105.51L1455.58 105.51" stroke="hsl(0, 0%, 0%)" stroke-width="1.5"></path><path d="M1455.58 105.51L1391.45 213.72" stroke="hsl(0, 0%, 0%)" stroke-width="1.5"></path><path d="M1455.58 105.51L1576.61 69.82" stroke="hsl(0, 0%, 0%)" stroke-width="1.5"></path><path d="M1455.58 105.51L1539.64 -44.38" stroke="hsl(0, 0%, 0%)" stroke-width="1.5"></path><path d="M1455.58 105.51L1575.44 253.93" stroke="hsl(0, 0%, 0%)" stroke-width="1.5"></path><path d="M1455.58 105.51L1262.63 -109.02" stroke="hsl(0, 0%, 0%)" stroke-width="1.5"></path><path d="M1391.45 213.72L1391.45 213.72" stroke="hsl(0, 0%, 0%)" stroke-width="1.5"></path><path d="M1391.45 213.72L1575.44 253.93" stroke="hsl(0, 0%, 0%)" stroke-width="1.5"></path><path d="M1418.79 490.46L1418.79 490.46" stroke="hsl(0, 0%, 0%)" stroke-width="1.5"></path><path d="M1418.79 490.46L1565.47 513.07" stroke="hsl(0, 0%, 0%)" stroke-width="1.5"></path><path d="M1432.05 675.22L1432.05 675.22" stroke="hsl(0, 0%, 0%)" stroke-width="1.5"></path><path d="M1432.05 675.22L1604.67 706.77" stroke="hsl(0, 0%, 0%)" stroke-width="1.5"></path><path d="M1432.05 675.22L1418.79 490.46" stroke="hsl(0, 0%, 0%)" stroke-width="1.5"></path><path d="M1539.64 -44.38L1539.64 -44.38" stroke="hsl(0, 0%, 0%)" stroke-width="1.5"></path><path d="M1539.64 -44.38L1576.61 69.82" stroke="hsl(0, 0%, 0%)" stroke-width="1.5"></path><path d="M1539.64 -44.38L1391.45 213.72" stroke="hsl(0, 0%, 0%)" stroke-width="1.5"></path><path d="M1576.61 69.82L1576.61 69.82" stroke="hsl(0, 0%, 0%)" stroke-width="1.5"></path><path d="M1576.61 69.82L1575.44 253.93" stroke="hsl(0, 0%, 0%)" stroke-width="1.5"></path><path d="M1576.61 69.82L1391.45 213.72" stroke="hsl(0, 0%, 0%)" stroke-width="1.5"></path><path d="M1575.44 253.93L1575.44 253.93" stroke="hsl(0, 0%, 0%)" stroke-width="1.5"></path><path d="M1575.44 253.93L1388.26 408.74" stroke="hsl(0, 0%, 0%)" stroke-width="1.5"></path><path d="M1565.47 513.07L1565.47 513.07" stroke="hsl(0, 0%, 0%)" stroke-width="1.5"></path><path d="M1565.47 513.07L1604.67 706.77" stroke="hsl(0, 0%, 0%)" stroke-width="1.5"></path><path d="M1565.47 513.07L1388.26 408.74" stroke="hsl(0, 0%, 0%)" stroke-width="1.5"></path><path d="M1565.47 513.07L1432.05 675.22" stroke="hsl(0, 0%, 0%)" stroke-width="1.5"></path><path d="M1565.47 513.07L1575.44 253.93" stroke="hsl(0, 0%, 0%)" stroke-width="1.5"></path><path d="M1604.67 706.77L1604.67 706.77" stroke="hsl(0, 0%, 0%)" stroke-width="1.5"></path><path d="M1604.67 706.77L1418.79 490.46" stroke="hsl(0, 0%, 0%)" stroke-width="1.5"></path><circle r="25" cx="244.84" cy="509.21" fill="url(&quot;#SvgjsRadialGradient1047&quot;)"></circle><circle r="25" cx="347.73" cy="693.05" fill="url(&quot;#SvgjsRadialGradient1047&quot;)"></circle><circle r="25" cx="694.29" cy="531.53" fill="url(&quot;#SvgjsRadialGradient1047&quot;)"></circle><circle r="25" cx="839.78" cy="372.32" fill="url(&quot;#SvgjsRadialGradient1047&quot;)"></circle><circle r="25" cx="819.22" cy="543.54" fill="url(&quot;#SvgjsRadialGradient1047&quot;)"></circle><circle r="25" cx="1102.06" cy="510.67" fill="url(&quot;#SvgjsRadialGradient1047&quot;)"></circle><circle r="25" cx="1144.69" cy="679.63" fill="url(&quot;#SvgjsRadialGradient1047&quot;)"></circle><circle r="25" cx="1295.56" cy="374.62" fill="url(&quot;#SvgjsRadialGradient1047&quot;)"></circle><circle r="25" cx="1240.06" cy="694.5" fill="url(&quot;#SvgjsRadialGradient1047&quot;)"></circle><circle r="25" cx="1388.26" cy="408.74" fill="url(&quot;#SvgjsRadialGradient1047&quot;)"></circle><circle r="5" cx="-37.64" cy="488.17" fill="#808080"></circle><circle r="5" cx="-46.67" cy="671.9" fill="#808080"></circle><circle r="5" cx="62.48" cy="556.91" fill="#808080"></circle><circle r="5" cx="56.08" cy="670.37" fill="#808080"></circle><circle r="5" cx="257.83" cy="662" fill="#808080"></circle><circle r="5" cx="386.2" cy="516.39" fill="#808080"></circle><circle r="5" cx="519.16" cy="516.38" fill="#808080"></circle><circle r="5" cx="515.09" cy="651.32" fill="#808080"></circle><circle r="5" cx="712.31" cy="390.86" fill="#808080"></circle><circle r="5" cx="846.9" cy="657.43" fill="#808080"></circle><circle r="5" cx="994.12" cy="362.69" fill="#808080"></circle><circle r="5" cx="939.82" cy="529.56" fill="#808080"></circle><circle r="5" cx="1011.99" cy="671.89" fill="#808080"></circle><circle r="5" cx="1123.44" cy="372.13" fill="#808080"></circle><circle r="5" cx="1262.63" cy="-109.02" fill="#808080"></circle><circle r="5" cx="1290.31" cy="69.9" fill="#808080"></circle><circle r="5" cx="1240.99" cy="539.77" fill="#808080"></circle><circle r="5" cx="1455.58" cy="105.51" fill="#808080"></circle><circle r="5" cx="1391.45" cy="213.72" fill="#808080"></circle><circle r="5" cx="1418.79" cy="490.46" fill="#808080"></circle><circle r="5" cx="1432.05" cy="675.22" fill="#808080"></circle><circle r="5" cx="1539.64" cy="-44.38" fill="#808080"></circle><circle r="5" cx="1576.61" cy="69.82" fill="#808080"></circle><circle r="5" cx="1575.44" cy="253.93" fill="#808080"></circle><circle r="5" cx="1565.47" cy="513.07" fill="#808080"></circle><circle r="5" cx="1604.67" cy="706.77" fill="#808080"></circle></g><defs><mask id="SvgjsMask1046"><rect width="1440" height="579" fill="#ffffff"></rect></mask><radialGradient id="SvgjsRadialGradient1047"><stop stop-color="#ffffff" offset="0.1"></stop><stop stop-color="rgba(0, 0, 0, 1)" offset="0.2"></stop><stop stop-color="rgba(0, 0, 0, 0)" offset="1"></stop></radialGradient></defs></svg>